<?xml version="1.0" encoding="UTF-8"?>
<svg width="253px" height="253px" viewBox="0 0 253 253" version="1.1" xmlns="http://www.w3.org/2000/svg" xmlns:xlink="http://www.w3.org/1999/xlink">
    <title>Logo – Dark Mode</title>
    <g id="Logo-–-Dark-Mode" stroke="none" stroke-width="1" fill="none" fill-rule="evenodd">
        <g id="Centered-Triangles" transform="translate(126.500000, 109.500000) rotate(-90.000000) translate(-126.500000, -109.500000) translate(17.000000, -17.000000)">
            <path d="M135.477665,61.9731904 L210.003751,190.994637 C218.290985,205.341705 213.378518,223.690431 199.03145,231.977665 C194.469599,234.612707 189.294287,236 184.026086,236 L34.9739135,236 C18.405371,236 4.97391354,222.568542 4.97391354,206 C4.97391354,200.7318 6.36120678,195.556488 8.99624875,190.994637 L83.5223352,61.9731904 C91.8095686,47.6261223 110.158295,42.7136557 124.505363,51.0008891 C129.061759,53.6327795 132.845774,57.4167952 135.477665,61.9731904 Z" id="Triangle" fill="#FFFFFF" transform="translate(109.500000, 126.500000) rotate(90.000000) translate(-109.500000, -126.500000) "></path>
            <path d="M75.4615273,100.252534 L105.865349,152.450244 C110.034963,159.608698 107.612031,168.791912 100.453577,172.961527 C98.1614976,174.296604 95.5563782,175 92.9038212,175 L32.0961788,175 C23.8119075,175 17.0961788,168.284271 17.0961788,160 C17.0961788,157.347443 17.7995744,154.742324 19.1346515,152.450244 L49.5384727,100.252534 C53.7080876,93.0940798 62.8913017,90.671147 70.0497556,94.8407619 C72.2912796,96.1463918 74.1558974,98.0110097 75.4615273,100.252534 Z" id="Triangle" fill="#000000" transform="translate(62.500000, 126.500000) rotate(-90.000000) translate(-62.500000, -126.500000) "></path>
        </g>
    </g>
</svg>